<?xml version="1.0" encoding="UTF-8"?>
<svg width="92px" height="64px" viewBox="0 0 92 64" version="1.1" xmlns="http://www.w3.org/2000/svg" xmlns:xlink="http://www.w3.org/1999/xlink">
    <title>08D18BAF-16F4-4F97-8513-B99CD6FB75E2</title>
    <g id="-----&gt;-NEE-Updated-4/29-(Theresa)" stroke="none" stroke-width="1" fill="none" fill-rule="evenodd" stroke-linecap="round" stroke-linejoin="round">
        <g id="FPL-NEE/Updated-HP/Hero-2" transform="translate(-674.000000, -1742.000000)" stroke="#0C2739" stroke-width="1.08">
            <g id="About-Nextera" transform="translate(198.000000, 1017.000000)">
                <g id="4-copy-7" transform="translate(356.000000, 680.000000)">
                    <g id="01_Icon/Value/ComprehensiveData" transform="translate(121.000000, 46.250000)">
                        <path d="M79.2948442,0 C82.0205212,0 84.2307692,2.31198307 84.2307692,5.16311968 L84.2307692,53.3773585 L6.92307692,53.3773585 L6.92307692,5.16311968 C6.92307692,2.31198307 9.1322165,0 11.8578935,0 L79.2948442,0 Z" id="Stroke-1"></path>
                        <path d="M0,53.3773585 L90,53.3773585 L90,59.4050253 C90,60.5621066 89.0934402,61.5 87.9763894,61.5 L2.02249694,61.5 C0.905446041,61.5 0,60.5621066 0,59.4050253 L0,53.3773585 Z" id="Stroke-5"></path>
                        <polygon id="Stroke-6" points="40.3846154 53.3773585 49.6153846 53.3773585 49.6153846 52.2169811 40.3846154 52.2169811"></polygon>
                        <polygon id="Stroke-7" fill="#68BB45" points="23.0769231 45.0226415 28.8461538 45.0226415 28.8461538 34.8113208 23.0769231 34.8113208"></polygon>
                        <polygon id="Stroke-8" fill="#68BB45" points="35.7692308 45.254717 41.5384615 45.254717 41.5384615 29.009434 35.7692308 29.009434"></polygon>
                        <polygon id="Stroke-9" fill="#68BB45" points="48.4615385 45.0226415 54.2307692 45.0226415 54.2307692 34.8113208 48.4615385 34.8113208"></polygon>
                        <polygon id="Stroke-10" fill="#68BB45" points="61.1538462 45.254717 66.9230769 45.254717 66.9230769 29.009434 61.1538462 29.009434"></polygon>
                        <line x1="54.2307692" y1="22.6273585" x2="61.7307692" y2="19.1462264" id="Stroke-11"></line>
                        <line x1="41.5384615" y1="18.5660377" x2="48.4467732" y2="22.3069537" id="Stroke-12"></line>
                        <line x1="28.8461538" y1="23.2075472" x2="36.2795704" y2="18.5660377" id="Stroke-13"></line>
                        <polygon id="Stroke-3" points="13.8461538 45.254717 77.3076923 45.254717 77.3076923 6.96226415 13.8461538 6.96226415"></polygon>
                        <path d="M28.8461538,23.7877358 C28.8461538,25.390217 27.555,26.6886792 25.9615385,26.6886792 C24.3680769,26.6886792 23.0769231,25.390217 23.0769231,23.7877358 C23.0769231,22.1852547 24.3680769,20.8867925 25.9615385,20.8867925 C27.555,20.8867925 28.8461538,22.1852547 28.8461538,23.7877358 Z" id="Stroke-14" fill="#68BB45"></path>
                        <path d="M41.5384615,16.8254717 C41.5384615,18.4279528 40.2473077,19.7264151 38.6538462,19.7264151 C37.0603846,19.7264151 35.7692308,18.4279528 35.7692308,16.8254717 C35.7692308,15.2229906 37.0603846,13.9245283 38.6538462,13.9245283 C40.2473077,13.9245283 41.5384615,15.2229906 41.5384615,16.8254717 Z" id="Stroke-15" fill="#68BB45"></path>
                        <path d="M54.2307692,22.6273585 C54.2307692,24.2298396 52.9396154,25.5283019 51.3461538,25.5283019 C49.7526923,25.5283019 48.4615385,24.2298396 48.4615385,22.6273585 C48.4615385,21.0248774 49.7526923,19.7264151 51.3461538,19.7264151 C52.9396154,19.7264151 54.2307692,21.0248774 54.2307692,22.6273585 Z" id="Stroke-16" fill="#68BB45"></path>
                        <path d="M66.9230769,16.8254717 C66.9230769,18.4279528 65.6319231,19.7264151 64.0384615,19.7264151 C62.445,19.7264151 61.1538462,18.4279528 61.1538462,16.8254717 C61.1538462,15.2229906 62.445,13.9245283 64.0384615,13.9245283 C65.6319231,13.9245283 66.9230769,15.2229906 66.9230769,16.8254717 Z" id="Stroke-17" fill="#68BB45"></path>
                    </g>
                </g>
            </g>
        </g>
    </g>
</svg>