<?xml version="1.0" encoding="UTF-8"?>
<svg width="73px" height="79px" viewBox="0 0 73 79" version="1.1" xmlns="http://www.w3.org/2000/svg" xmlns:xlink="http://www.w3.org/1999/xlink">
    <title>245350CE-F8DA-4A55-8CBF-DCE94B4A0464</title>
    <g id="-----&gt;-NEE-Updated-4/29-(Theresa)" stroke="none" stroke-width="1" fill="none" fill-rule="evenodd" stroke-linecap="round" stroke-linejoin="round">
        <g id="FPL-NEE/Updated-HP/Hero-2" transform="translate(-1040.000000, -1734.000000)" stroke="#0C2739" stroke-width="1.08">
            <g id="About-Nextera" transform="translate(198.000000, 1017.000000)">
                <g id="4-copy-8" transform="translate(712.000000, 680.000000)">
                    <g id="Group-31" transform="translate(130.750000, 38.000000)">
                        <path d="M66.0714095,43.3444652 C66.0714095,47.8962537 62.3642214,51.5859744 57.7908843,51.5859744 C53.2175472,51.5859744 49.5103591,47.8962537 49.5103591,43.3444652 C49.5103591,38.7926766 53.2175472,35.102956 57.7908843,35.102956 C62.3642214,35.102956 66.0714095,38.7926766 66.0714095,43.3444652 Z" id="Stroke-1"></path>
                        <path d="M48.5155576,57.1076548 C49.7985792,56.0956619 51.3776154,55.6267109 53.2535418,55.6267109 L62.3284019,55.6267109 C66.3281014,55.6267109 69.6902311,58.6138767 70.1421349,62.5694524 L71.25,72.2736007 L52.8042653,72.2736007" id="Stroke-3"></path>
                        <path d="M21.7401663,43.3444652 C21.7401663,47.8962537 18.0329783,51.5859744 13.4596412,51.5859744 C8.88630405,51.5859744 5.17911599,47.8962537 5.17911599,43.3444652 C5.17911599,38.7926766 8.88630405,35.102956 13.4596412,35.102956 C18.0329783,35.102956 21.7401663,38.7926766 21.7401663,43.3444652 Z" id="Stroke-5"></path>
                        <path d="M16.9656619,72.273775 L0,72.273775 L1.10874086,62.5696267 C1.56064472,58.614051 4.92277441,55.6260136 8.92247387,55.6260136 L17.9973339,55.6260136 C19.4511332,55.6260136 20.8208573,56.0208738 21.9970334,56.7138405" id="Stroke-7"></path>
                        <path d="M43.7910604,47.5706902 C43.7910604,52.1224787 40.0838723,55.8121994 35.5105352,55.8121994 C30.9371981,55.8121994 27.23001,52.1224787 27.23001,47.5706902 C27.23001,43.0189016 30.9371981,39.329181 35.5105352,39.329181 C40.0838723,39.329181 43.7910604,43.0189016 43.7910604,47.5706902 Z" id="Stroke-9"></path>
                        <path d="M48.9699136,76.5 L22.0509816,76.5 L23.1597225,66.7958517 C23.6107506,62.840276 26.973756,59.8522386 30.9734555,59.8522386 L40.0483155,59.8522386 C44.0471392,59.8522386 47.4101447,62.840276 47.8620486,66.7958517 L48.9699136,76.5 Z" id="Stroke-11"></path>
                        <path d="M54.4922489,27.7038484 L16.837097,27.7038484 C14.9935745,27.7038484 13.4986135,26.216803 13.4986135,24.3819667 L13.4986135,3.32188171 C13.4986135,1.48704545 14.9935745,0 16.837097,0 L54.4922489,0 C56.3357714,0 57.8298566,1.48704545 57.8298566,3.32188171 L57.8298566,24.3819667 C57.8298566,26.216803 56.3357714,27.7038484 54.4922489,27.7038484 Z" id="Stroke-13" fill="#68BB45"></path>
                        <line x1="6.21910792" y1="19.1917771" x2="1.38391178" y2="20.4565503" id="Stroke-15"></line>
                        <line x1="5.9604893" y1="8.66670308" x2="1.16908229" y2="7.24677516" id="Stroke-17"></line>
                        <line x1="65.0315051" y1="19.1917771" x2="69.8667013" y2="20.4565503" id="Stroke-19"></line>
                        <line x1="65.2901238" y1="8.66670308" x2="70.0815308" y2="7.24677516" id="Stroke-21"></line>
                        <polygon id="Stroke-23" fill="#EEF1F2" points="27.2692451 7.67536851 29.2852968 11.7416446 33.7947018 12.3936434 30.5315356 15.558627 31.3022243 20.0284799 27.2692451 17.9182003 23.2362659 20.0284799 24.0069546 15.558627 20.7437884 12.3936434 25.2531934 11.7416446"></polygon>
                        <line x1="40.5156332" y1="8.35316835" x2="52.0742129" y2="8.35316835" id="Stroke-25"></line>
                        <line x1="40.5156332" y1="13.851837" x2="52.0742129" y2="13.851837" id="Stroke-27"></line>
                        <line x1="40.5156332" y1="19.3505057" x2="52.0742129" y2="19.3505057" id="Stroke-29"></line>
                    </g>
                </g>
            </g>
        </g>
    </g>
</svg>