<?xml version="1.0" encoding="UTF-8"?>
<svg width="80px" height="87px" viewBox="0 0 80 87" version="1.1" xmlns="http://www.w3.org/2000/svg" xmlns:xlink="http://www.w3.org/1999/xlink">
    <title>7C56BC42-22A7-4A84-A8B6-5810E4A20564</title>
    <g id="-----&gt;-NEE-Updated-4/29-(Theresa)" stroke="none" stroke-width="1" fill="none" fill-rule="evenodd">
        <g id="FPL-NEE/Updated-HP/Hero-2" transform="translate(-1036.000000, -1372.000000)" stroke="#0C2739" stroke-width="1.44">
            <g id="About-Nextera" transform="translate(198.000000, 1017.000000)">
                <g id="4-copy-5" transform="translate(712.000000, 324.000000)">
                    <g id="01-UI/Icon/Team" transform="translate(127.481481, 33.222222)">
                        <g id="Hand" transform="translate(0.000000, 52.666667)">
                            <path d="M1.97058292,8.79646586 C-0.183028908,7.1997567 -0.642270477,4.14908585 0.944775933,1.98249892 C2.53192283,-0.18408801 5.56432405,-0.646197517 7.71793588,0.95051164 L23.3039114,12.5056756 C22.9237558,11.7713148 22.7088067,10.9364646 22.7088067,10.0511675 C22.7088067,7.1127131 25.0766642,5.41258281 27.9976215,5.41258281 L50.5819562,5.41258281 C52.0650954,5.41258281 52.973027,5.84466682 54.3660263,7.01606539 C59.3849236,10.4576742 62.469178,9.39272967 63.7037037,8.81617957 L63.7037037,28.1481481 C60.3496324,26.292229 54.3868278,25.8751072 51.8246216,25.8985615 L34.495136,25.8985615 C27.685498,25.8973483 24.2186764,24.7553687 21.9595495,23.4161508 C21.579394,23.264608 21.2122017,23.0618096 20.8675193,22.8062391 L1.97058292,8.79646586 Z" id="Path" fill-rule="nonzero"></path>
                            <rect id="Rectangle" fill-rule="nonzero" x="63.7037037" y="5.18518519" width="13.3333333" height="25.9259259" rx="0.96"></rect>
                            <path d="M22.962963,9.62962963 C22.962963,12.4933261 25.3453627,14.8148148 28.2842514,14.8148148 L40,14.8148148" id="Path" stroke-linecap="round"></path>
                            <line x1="68.5185185" y1="18.5185185" x2="68.5185185" y2="26.6666667" id="Path" stroke-linecap="round"></line>
                        </g>
                        <g id="Leaves" transform="translate(9.629630, 0.000000)">
                            <path d="M21.9462739,14.1614748 C23.2370597,11.8569338 25.9935863,8.2027475 33.8781842,0 C35.1743268,4.59695767 37.4024509,14.184006 36.9859347,19.1084229 C36.9590497,19.5744031 36.884661,20.0428082 36.7593322,20.5085864 C36.7587257,20.5109102 36.7581193,20.5132341 36.7575129,20.5154569 C36.7538743,20.5291978 36.7501346,20.5427367 36.746395,20.5562756 C35.6501721,24.5206439 31.2644719,26.7859827 26.9241528,25.6194156 C22.5838337,24.4528484 19.925852,20.294389 20.9661823,16.3150674 C20.9861945,16.2518185 21.0176277,16.1213804 21.0357196,16.0674269 C21.2441293,15.375226 21.581001,14.8134632 21.9462739,14.1614748 Z" id="Path" fill="#68BB45" fill-rule="nonzero"></path>
                            <path d="M26.7008052,51.8518519 C26.4521442,43.1995617 27.5585042,23.6005684 30.1311514,13.584671" id="Path" stroke-linecap="round"></path>
                            <path d="M15.0083716,27.0050623 C12.973978,26.2390551 9.30328081,25.4051803 0,24.4444444 C1.63210897,28.0501033 5.33346686,35.3151706 8.21297769,38.2090762 C8.47763861,38.4896227 8.77335974,38.7461686 9.09954184,38.9737723 C9.10113979,38.9748816 9.10273775,38.9760917 9.10443557,38.977201 C9.11392341,38.9838567 9.12351113,38.9904115 9.13299898,38.9969663 C11.9280181,40.9182364 15.8812532,39.998443 17.9812627,36.9303808 C20.0811724,33.8623185 19.5357711,29.8031665 16.7678174,27.8423657 C16.7216765,27.8131211 16.6325906,27.747472 16.592542,27.722967 C16.0938808,27.3966375 15.5839342,27.2217749 15.0083716,27.0050623 Z" id="Path" fill="#68BB45" fill-rule="nonzero"></path>
                            <path d="M25.9259259,51.8518519 C23.3447878,46.7443391 17.3497289,37.0279133 10.7902099,31.7912317" id="Path" stroke-linecap="round"></path>
                            <path d="M39.0657257,27.0050623 C41.1001161,26.2390551 44.7708076,25.4051803 54.0740741,24.4444444 C52.4419676,28.0501033 48.7406154,35.3151706 45.8611091,38.2090762 C45.5964486,38.4896227 45.3007279,38.7461686 44.9745463,38.9737723 C44.9729483,38.9748816 44.9712505,38.9760917 44.9696526,38.977201 C44.9601647,38.9838567 44.950577,38.9904115 44.9410892,38.9969663 C42.1460744,40.9182364 38.1927455,39.998443 36.0928391,36.9303808 C33.9929327,33.8623185 34.5382332,29.8031665 37.3062826,27.8423657 C37.3524234,27.8131211 37.4415091,27.747472 37.4815578,27.722967 C37.9802181,27.3966375 38.4900641,27.2217749 39.0657257,27.0050623 Z" id="Path" fill="#68BB45" fill-rule="nonzero"></path>
                            <path d="M27.4074074,51.8518519 C30.1051886,46.5135276 36.5324167,36.1403193 43.435604,31.10957" id="Path" stroke-linecap="round"></path>
                        </g>
                    </g>
                </g>
            </g>
        </g>
    </g>
</svg>