<?xml version="1.0" encoding="UTF-8"?>
<svg width="18px" height="18px" viewBox="0 0 18 18" version="1.1" xmlns="http://www.w3.org/2000/svg" xmlns:xlink="http://www.w3.org/1999/xlink">
    <title>84DAA0C9-952F-498F-B559-705CFA345106</title>
    <g id="-----&gt;-NEE-Updated-4/29-(Theresa)" stroke="none" stroke-width="1" fill="none" fill-rule="evenodd">
        <g id="FPL-NEE/ProductsSolutions-LP" transform="translate(-877.000000, -4245.000000)" fill="#0073A8">
            <g id="03_Component/ContactUs" transform="translate(0.000000, 3548.000000)">
                <g id="Additional-Info" transform="translate(876.000000, 476.000000)">
                    <g id="social" transform="translate(0.000000, 193.000000)">
                        <g id="_lib/logos/social/facebook" transform="translate(1.200000, 28.200000)">
                            <path d="M9.40073026,17.6 L0.971384891,17.6 C0.434746641,17.6 0,17.1649836 0,16.6285544 L0,0.971377353 C0,0.434811558 0.434814933,0 0.971384891,0 L16.6286834,0 C17.1651168,0 17.6,0.434811558 17.6,0.971377353 L17.6,16.6285544 C17.6,17.1650519 17.1650485,17.6 16.6286834,17.6 L12.1437453,17.6 L12.1437453,10.78431 L14.4314578,10.78431 L14.7740103,8.12811473 L12.1437453,8.12811473 L12.1437453,6.43230185 C12.1437453,5.66327201 12.3572942,5.13920355 13.4600729,5.13920355 L14.8666142,5.13858893 L14.8666142,2.76286653 C14.6233582,2.73049639 13.7884206,2.65817577 12.8170357,2.65817577 C10.7891059,2.65817577 9.40073026,3.89602629 9.40073026,6.16924325 L9.40073026,8.12811473 L7.10714466,8.12811473 L7.10714466,10.78431 L9.40073026,10.78431 L9.40073026,17.6 L9.40073026,17.6 Z" id="Facebook"></path>
                        </g>
                    </g>
                </g>
            </g>
        </g>
    </g>
</svg>