<?xml version="1.0" encoding="UTF-8"?>
<svg width="72px" height="85px" viewBox="0 0 72 85" version="1.1" xmlns="http://www.w3.org/2000/svg" xmlns:xlink="http://www.w3.org/1999/xlink">
    <title>1BFE0E36-298F-4EB8-A605-846934189427</title>
    <g id="-----&gt;-NEE-Updated-4/29-(Theresa)" stroke="none" stroke-width="1" fill="none" fill-rule="evenodd">
        <g id="FPL-NEE/Updated-HP/Hero-2" transform="translate(-328.000000, -1374.000000)">
            <g id="About-Nextera" transform="translate(198.000000, 1017.000000)">
                <g id="4-copy-3" transform="translate(0.000000, 324.000000)">
                    <g id="Group-38" transform="translate(131.500000, 34.198042)">
                        <path d="M49.7468237,46.0216918 C52.1704408,41.5589109 53.9805798,38.4224144 53.9805798,33.8037118 C53.9805798,22.9633564 45.2593451,14.1766027 34.4998107,14.1766027 C23.7412229,14.1766027 15.0190415,22.9633564 15.0190415,33.8037118 C15.0190415,38.4661485 16.358658,40.9589929 19.3285357,46.1158153 C21.2636425,49.8170522 24.5497264,55.9750054 24.7608462,62.2755698 C24.7778872,62.8079851 25.202967,63.2443755 25.7321865,63.2443755 L43.2863693,63.2443755 C43.8714457,63.2443755 44.3249271,62.7138617 44.3400748,62.1263034 C44.4536818,57.8764886 47.8893484,49.8237074 49.7543975,46.0216918 L49.7468237,46.0216918 Z" id="Stroke-2" stroke="#0C2739" stroke-width="1.2" stroke-linecap="round"></path>
                        <path d="M38.4092186,78.3258941 C38.4092186,80.4945356 36.6587233,82.251506 34.5001893,82.251506 C32.3416554,82.251506 30.5911601,80.4945356 30.5911601,78.3258941" id="Path" stroke="#0C2739" stroke-width="1.2" stroke-linecap="round"></path>
                        <path d="M25.5766395,66.854056 L43.4233605,66.854056 C43.9468997,66.854056 44.3700859,67.2799883 44.3700859,67.8047976 L44.3700859,77.3749623 C44.3700859,77.9007224 43.9468997,78.3257039 43.4233605,78.3257039 L25.5766395,78.3257039 C25.054047,78.3257039 24.6299141,77.9007224 24.6299141,77.3749623 L24.6299141,67.8047976 C24.6299141,67.2799883 25.054047,66.854056 25.5766395,66.854056" id="Fill-6"></path>
                        <path d="M25.5766395,66.854056 L43.4233605,66.854056 C43.9468997,66.854056 44.3700859,67.2799883 44.3700859,67.8047976 L44.3700859,77.3749623 C44.3700859,77.9007224 43.9468997,78.3257039 43.4233605,78.3257039 L25.5766395,78.3257039 C25.054047,78.3257039 24.6299141,77.9007224 24.6299141,77.3749623 L24.6299141,67.8047976 C24.6299141,67.2799883 25.054047,66.854056 25.5766395,66.854056 Z" id="Stroke-8" stroke="#0C2739" stroke-width="1.2" stroke-linecap="round"></path>
                        <line x1="25.3399581" y1="70.6974289" x2="34.5279284" y2="70.6974289" id="Stroke-10" stroke="#0C2739" stroke-width="1.2" stroke-linecap="round"></line>
                        <line x1="25.3399581" y1="74.2226836" x2="34.5279284" y2="74.2226836" id="Stroke-12" stroke="#0C2739" stroke-width="1.2" stroke-linecap="round"></line>
                        <path d="M27.7959532,39.5969606 C28.3545212,37.5186395 29.8295194,34.0741027 34.5527326,25.9851934 C36.6591967,29.3146904 40.6572182,36.3587347 41.4127051,40.3062138 C41.4941234,40.677003 41.5376728,41.0601518 41.5376728,41.4509066 L41.5376728,41.4566111 C41.5376728,41.4689707 41.5376728,41.4794289 41.5376728,41.4908378 C41.5121112,44.8288915 38.3708763,47.5280468 34.499716,47.5280468 C30.6285557,47.5280468 27.4873207,44.8288915 27.4627059,41.4908378 C27.4645993,41.4375962 27.4617592,41.328261 27.4645993,41.2826254 C27.4835338,40.6960178 27.6378501,40.1845189 27.7959532,39.5969606 Z" id="Stroke-16" stroke="#0C2739" stroke-width="1.2" fill="#68BB45"></path>
                        <line x1="34.5617265" y1="39.6946328" x2="34.5617265" y2="55.4545695" id="Stroke-18" stroke="#0C2739" stroke-width="1.2" stroke-linecap="round"></line>
                        <line x1="34.5000947" y1="0" x2="34.5000947" y2="7.29504012" id="Stroke-20" stroke="#0C2739" stroke-width="1.2" stroke-linecap="round"></line>
                        <line x1="17.25" y1="4.64171053" x2="20.8816387" y2="10.9593883" id="Stroke-22" stroke="#0C2739" stroke-width="1.2" stroke-linecap="round"></line>
                        <line x1="64.3779918" y1="17.3233672" x2="58.0870013" y2="20.9704119" id="Stroke-24" stroke="#0C2739" stroke-width="1.2" stroke-linecap="round"></line>
                        <line x1="4.62219756" y1="17.323082" x2="10.913188" y2="20.9701267" id="Stroke-26" stroke="#0C2739" stroke-width="1.2" stroke-linecap="round"></line>
                        <line x1="4.62200821" y1="51.9694361" x2="10.9129987" y2="48.3223914" id="Stroke-28" stroke="#0C2739" stroke-width="1.2" stroke-linecap="round"></line>
                        <line x1="64.3778024" y1="51.9697213" x2="58.086812" y2="48.3226766" id="Stroke-30" stroke="#0C2739" stroke-width="1.2" stroke-linecap="round"></line>
                        <line x1="0" y1="34.646259" x2="7.26422421" y2="34.646259" id="Stroke-32" stroke="#0C2739" stroke-width="1.2" stroke-linecap="round"></line>
                        <line x1="69" y1="34.6465442" x2="61.7357758" y2="34.6465442" id="Stroke-34" stroke="#0C2739" stroke-width="1.2" stroke-linecap="round"></line>
                        <line x1="51.7500947" y1="4.6418056" x2="48.1184559" y2="10.9594834" id="Stroke-36" stroke="#0C2739" stroke-width="1.2" stroke-linecap="round"></line>
                    </g>
                </g>
            </g>
        </g>
    </g>
</svg>