<?xml version="1.0" encoding="UTF-8"?>
<svg width="22px" height="22px" viewBox="0 0 22 22" version="1.1" xmlns="http://www.w3.org/2000/svg" xmlns:xlink="http://www.w3.org/1999/xlink">
    <title>0EAC308F-C91C-480B-83E4-65FBE2EEB22A</title>
    <g id="-----&gt;-NEE-Updated-4/29-(Theresa)" stroke="none" stroke-width="1" fill="none" fill-rule="evenodd">
        <g id="FPL-NEE/ProductsSolutions-LP" transform="translate(-955.000000, -4243.000000)" fill-rule="nonzero">
            <g id="03_Component/ContactUs" transform="translate(0.000000, 3548.000000)">
                <g id="Additional-Info" transform="translate(876.000000, 476.000000)">
                    <g id="social" transform="translate(0.000000, 193.000000)">
                        <g id="01_Icon/Logo/Social/Linkedin" transform="translate(79.600000, 26.600000)">
                            <g id="linkedin" fill="#0073A8">
                                <path d="M17.3333333,0 C19.2479205,0 20.8,1.55207953 20.8,3.46666667 L20.8,17.3333333 C20.8,19.2479205 19.2479205,20.8 17.3333333,20.8 L3.46666667,20.8 C1.55207953,20.8 0,19.2479205 0,17.3333333 L0,3.46666667 C0,1.55207953 1.55207953,0 3.46666667,0 L17.3333333,0 Z" id="Rectangle"></path>
                            </g>
                            <path d="M8.17966212,14.4406805 C8.17966212,14.6023148 8.04777019,14.7333333 7.88505855,14.7333333 L6.63100124,14.7333333 C6.46828961,14.7333333 6.33639768,14.6023148 6.33639768,14.4406805 L6.33639768,9.21853369 C6.33639768,9.05689949 6.46828961,8.9258809 6.63100124,8.9258809 L7.88505855,8.9258809 C8.04777019,8.9258809 8.17966212,9.05689949 8.17966212,9.21853369 L8.17966212,14.4406805 Z M7.2580299,8.4336154 C6.60006435,8.4336154 6.06666667,7.90374972 6.06666667,7.25014103 C6.06666667,6.59653235 6.60006435,6.06666667 7.2580299,6.06666667 C7.91599544,6.06666667 8.44939313,6.59653235 8.44939313,7.25014103 C8.44939313,7.90374972 7.91602474,8.4336154 7.2580299,8.4336154 Z M14.7333325,14.4642534 C14.7333325,14.6128498 14.6120451,14.7333333 14.4624582,14.7333333 L13.116762,14.7333333 C12.9671752,14.7333333 12.8458885,14.6128498 12.8458885,14.4642534 L12.8458885,12.0147705 C12.8458885,11.649362 12.9537867,10.4135326 11.8845891,10.4135326 C11.0552402,10.4135326 10.8870209,11.2594202 10.8532422,11.6390307 L10.8532422,14.4642534 C10.8532422,14.6128498 10.7319848,14.7333333 10.5823687,14.7333333 L9.28085135,14.7333333 C9.13126445,14.7333333 9.00997778,14.6128498 9.00997778,14.4642534 L9.00997778,9.19496082 C9.00997778,9.04636445 9.13126445,8.9258809 9.28085135,8.9258809 L10.5823687,8.9258809 C10.7319555,8.9258809 10.8532422,9.04636445 10.8532422,9.19496082 L10.8532422,9.65055742 C11.1607655,9.1921088 11.6177877,8.83825386 12.5908642,8.83825386 C14.7456655,8.83825386 14.7333325,10.8380479 14.7333325,11.9368346 L14.7333325,14.4642534 L14.7333325,14.4642534 Z" id="Shape" fill="#FFFFFF"></path>
                        </g>
                    </g>
                </g>
            </g>
        </g>
    </g>
</svg>