<?xml version="1.0" encoding="utf-8"?>
<!-- Generator: Adobe Illustrator 26.1.0, SVG Export Plug-In . SVG Version: 6.00 Build 0)  -->
<svg version="1.1" id="Layer_1" xmlns="http://www.w3.org/2000/svg" xmlns:xlink="http://www.w3.org/1999/xlink" x="0px" y="0px"
	 viewBox="0 0 100 100" style="enable-background:new 0 0 100 100;" xml:space="preserve">
<style type="text/css">
	.st0{fill:none;stroke:#FFFFFF;stroke-width:2.5;stroke-linecap:round;stroke-linejoin:round;}
</style>
<g>
	<g>
		<path class="st0" d="M74.44,82.12c9.51-2.33,16.57-10.91,16.57-21.14c0-4.7-1.5-9.03-4.03-12.59c2.45-3.09,3.93-6.99,3.93-11.25
			c0-8.65-6.07-15.87-14.17-17.67C73.24,12.24,65.85,7.24,57.28,7.24c-6.23,0-11.83,2.66-15.78,6.88c-2.38-1.09-5.01-1.72-7.8-1.72
			c-10.33,0-18.7,8.37-18.7,18.7c0,3.67,1.08,7.09,2.91,9.98c-4.3,3.95-7.01,9.6-7.01,15.89c0,11.93,9.67,21.59,21.59,21.59
			c0.76,0,1.5-0.04,2.24-0.12c3.17,5.49,9.09,9.2,15.89,9.2c5.18,0,9.85-2.16,13.19-5.61c0.69,0.18,1.4,0.33,2.12,0.44"/>
		<circle class="st0" cx="11.22" cy="10.96" r="2.4"/>
		<circle class="st0" cx="12.11" cy="83.51" r="2.43"/>
		<circle class="st0" cx="27.42" cy="90.74" r="2.21"/>
		<circle class="st0" cx="88.6" cy="86.08" r="2.41"/>
		<circle class="st0" cx="88.69" cy="8.47" r="2.5"/>
		<g>
			<path class="st0" d="M70.81,46.13c0,6.73-5.46,12.19-12.19,12.19c-6.73,0-12.19-5.46-12.19-12.19s5.46-12.19,12.19-12.19
				C65.35,33.94,70.81,39.4,70.81,46.13z"/>
			<path class="st0" d="M74.43,52.05c0,0,1.46-2.48,3.34-1.37c1.82,1.08,0.16,3.74-0.73,5.42c-1.49,2.83-1.8,3.45-1.8,3.45h4.78"/>
			<path class="st0" d="M43.07,56.21c-1.92,1.31-4.23,2.08-6.71,2.08c-6.63,0-12.01-5.45-12.01-12.17s5.38-12.17,12.01-12.17
				c2.49,0,4.8,0.77,6.71,2.08"/>
		</g>
	</g>
	<line class="st0" x1="70.34" y1="63.94" x2="70.34" y2="92.93"/>
	<polyline class="st0" points="76.82,89.61 70.34,94.03 63.85,89.61 	"/>
</g>
</svg>
