<?xml version="1.0" encoding="UTF-8"?>
<svg width="77px" height="81px" viewBox="0 0 77 81" version="1.1" xmlns="http://www.w3.org/2000/svg" xmlns:xlink="http://www.w3.org/1999/xlink">
    <title>5D432D17-55C5-4319-948F-10D290F4C1FA</title>
    <g id="-----&gt;-NEE-Updated-4/29-(Theresa)" stroke="none" stroke-width="1" fill="none" fill-rule="evenodd">
        <g id="FPL-NEE/Updated-HP/Hero-2" transform="translate(-327.000000, -1727.000000)" stroke="#0C2739" stroke-width="1.08">
            <g id="About-Nextera" transform="translate(198.000000, 1017.000000)">
                <g id="4-copy-6" transform="translate(0.000000, 680.000000)">
                    <g id="01-UI/Icon/Team" transform="translate(130.500000, 32.771920)">
                        <polygon id="Path" fill="#68BB45" fill-rule="nonzero" transform="translate(40.500000, 23.903605) rotate(-7.000000) translate(-40.500000, -23.903605) " points="27 26.8954051 48.2855258 1.47807967 43.474579 18.4066911 54 21.4696864 30.2834056 46.3291306 37.0910058 29.3850404"></polygon>
                        <g id="Hands" transform="translate(0.000000, 28.478080)" stroke-linecap="round">
                            <path d="M66.168504,14.5361205 L66.168504,3.83612054 C66.266104,2.80082054 66.746304,1.83912054 67.515404,1.13912054 C68.284404,0.439120544 69.286904,0.0512205439 70.326904,0.0512205439 C71.366804,0.0512205439 72.369304,0.439120544 73.138304,1.13912054 C73.907404,1.83912054 74.387704,2.80082054 74.4852198,3.83612054 L74.4852198,26.2189205 C74.488804,27.7867205 73.880604,29.2940205 72.790004,30.4203205 L63.355304,40.2481205 C62.174604,41.4717205 61.514104,43.1053205 61.512604,44.8057205 L61.512604,48.2577205" id="Path"></path>
                            <path d="M59.878704,30.4326205 C62.741204,27.4201205 65.447404,24.2628205 67.986704,20.9733205 C68.323204,20.5530205 68.572304,20.0698205 68.719504,19.5519205 C68.866604,19.0340205 68.908804,18.4919205 68.843604,17.9575205 C68.778404,17.4231205 68.607004,16.9071205 68.339604,16.4398205 C68.072204,15.9725205 67.714104,15.5633205 67.286404,15.2363205 C67.032804,14.9603205 66.719404,14.7459205 66.370204,14.6096205 C66.021004,14.4734205 65.645304,14.4188205 65.271704,14.4501205 C64.619804,14.6489205 64.042204,15.0382205 63.613304,15.5680205 C59.647204,19.3229205 55.454304,22.8306205 51.058304,26.0715205 C49.422004,27.2217205 48.067804,28.7280205 47.097504,30.4771205 C46.127304,32.2261205 45.566204,34.1724205 45.456504,36.1695205 C45.247604,42.8401205 45.456504,48.2331205 45.456504,48.2331205" id="Path"></path>
                            <path d="M8.43240396,14.5361205 L8.43240396,3.83612054 C8.38690396,2.77802054 7.91790396,1.78082054 7.12770396,1.06252054 C6.33760396,0.344220544 5.29070396,-0.0366794561 4.21620396,0.00332054387 C3.68370396,-0.0180794561 3.15210396,0.0641205439 2.65200396,0.245220544 C2.15180396,0.426320544 1.69270396,0.702820544 1.30110396,1.05872054 C0.909503957,1.41472054 0.593103957,1.84332054 0.369803957,2.31982054 C0.146503957,2.79642054 0.0209039574,3.31172054 0,3.83612054 L0,26.2189205 C-0.00179604259,27.7840205 0.610503957,29.2892205 1.70890396,30.4203205 L11.301404,40.2481205 C12.500204,41.4717205 13.170904,43.1053205 13.172404,44.8057205 L13.172404,48.2577205" id="Path"></path>
                            <path d="M15.468704,30.4326205 C12.610404,27.4198205 9.90830396,24.2626205 7.37300396,20.9733205 C7.03650396,20.5530205 6.78740396,20.0698205 6.64020396,19.5519205 C6.49310396,19.0340205 6.45090396,18.4919205 6.51610396,17.9575205 C6.58130396,17.4231205 6.75270396,16.9071205 7.02010396,16.4398205 C7.28750396,15.9725205 7.64550396,15.5633205 8.07330396,15.2363205 C8.32690396,14.9603205 8.64020396,14.7459205 8.98950396,14.6096205 C9.33870396,14.4734205 9.71440396,14.4188205 10.088004,14.4501205 C10.739904,14.6489205 11.317504,15.0382205 11.746404,15.5680205 C15.730704,19.3218205 19.939904,22.8294205 24.350504,26.0715205 C25.989704,27.2198205 27.346804,28.7254205 28.319304,30.4747205 C29.291804,32.2239205 29.854404,34.1712205 29.964704,36.1695205 C30.173504,42.8402205 29.964704,48.2332205 29.964704,48.2332205" id="Path"></path>
                            <line x1="13.582104" y1="48.3519205" x2="29.307504" y2="48.3519205" id="Path"></line>
                            <line x1="45.463504" y1="48.3519205" x2="61.188804" y2="48.3519205" id="Path"></line>
                        </g>
                    </g>
                </g>
            </g>
        </g>
    </g>
</svg>