<?xml version="1.0" encoding="utf-8"?>
<!-- Generator: Adobe Illustrator 26.1.0, SVG Export Plug-In . SVG Version: 6.00 Build 0)  -->
<svg version="1.1" id="Layer_1" xmlns="http://www.w3.org/2000/svg" xmlns:xlink="http://www.w3.org/1999/xlink" x="0px" y="0px"
	 viewBox="0 0 100 100" style="enable-background:new 0 0 100 100;" xml:space="preserve">
<style type="text/css">
	.st0{fill:none;stroke:#FFFFFF;stroke-width:2.5;stroke-linecap:round;stroke-linejoin:round;stroke-miterlimit:10;}
</style>
<g>
	<path class="st0" d="M28.35,53.47c-3.35-4.83-5.31-10.7-5.31-17.02c0-16.54,13.41-29.94,29.94-29.94
		c16.55,0,29.95,13.4,29.95,29.94c0,6.69-2.2,12.88-5.91,17.86"/>
	<polyline class="st0" points="26.44,23.58 34.77,31.78 33.42,38.87 38.32,41.74 41.75,53.78 51.48,36 41.36,30.77 34.77,31.27 
		34.1,25.87 42.54,20.13 42.2,9.17 	"/>
	<path class="st0" d="M82.76,32.25l-7.52,10.99L72.2,47.7l-2.96-12.38l-3.41-0.17c0,0-8.27-3.04-1.18-8.95l8.61-1.01l3.38-6.58
		L65.66,19.8l-3.01-1.86l2.94-8.28"/>
	<g>
		<path class="st0" d="M70.29,65.47l16.42-8.39c3.17-1.7,6.89-1.02,8.43,1.84c1.53,2.86,0.19,6.59-2.99,8.29L58.09,85.47l-1.8,0.45
			l-31.77,0.86c0,0-4.09,1.15-9,6.71"/>
		<path class="st0" d="M4.23,76.79l14.41-13.26c7.04-4.75,15.39-2.13,15.39-2.13c4.04,1.06,11.55,1.3,11.55,1.3l12.47,0
			c3.71,0,6.75,2.65,6.75,5.89s-3.04,5.89-6.75,5.89H40.8"/>
	</g>
</g>
</svg>
