<?xml version="1.0" encoding="UTF-8"?>
<svg width="24px" height="18px" viewBox="0 0 24 18" version="1.1" xmlns="http://www.w3.org/2000/svg" xmlns:xlink="http://www.w3.org/1999/xlink">
    <title>5C4C40E0-4F00-488E-84B0-4C149723B9B9</title>
    <g id="-----&gt;-NEE-Updated-4/29-(Theresa)" stroke="none" stroke-width="1" fill="none" fill-rule="evenodd">
        <g id="FPL-NEE/ProductsSolutions-LP" transform="translate(-914.000000, -4245.000000)" fill="#0073A8">
            <g id="03_Component/ContactUs" transform="translate(0.000000, 3548.000000)">
                <g id="Additional-Info" transform="translate(876.000000, 476.000000)">
                    <g id="social" transform="translate(0.000000, 193.000000)">
                        <g id="01_Icon/Logo/Social/Twitter-2" transform="translate(38.800000, 28.200000)">
                            <g id="_lib/logos/social/twitter" transform="translate(0.567742, 0.000000)">
                                <path d="M21.5741935,2.08032164 C20.7783462,2.43216225 19.9283695,2.6698924 19.0323097,2.77961401 C19.9466564,2.23100598 20.6503376,1.36201086 20.9795024,0.329164816 C20.1244054,0.836810111 19.1786052,1.20693766 18.1684349,1.40370507 C17.3586895,0.539098822 16.2066126,0 14.9360364,0 C12.4899761,0 10.5105983,1.98376663 10.5105983,4.42982695 C10.5105983,4.7772787 10.5471722,5.11595273 10.6247088,5.44072868 C6.94464615,5.25785933 3.68006265,3.49280444 1.49952861,0.809013971 C1.11989185,1.46295474 0.900448642,2.22661711 0.900448642,3.03563109 C0.900448642,4.57173356 1.68678682,5.92935556 2.87543754,6.72520294 C2.14396017,6.706916 1.45856588,6.50575973 0.863874774,6.17147457 L0.863874774,6.22706685 C0.863874774,8.37541589 2.39119952,10.1631466 4.41592888,10.569848 C4.04580133,10.6700604 3.65299799,10.7249212 3.25068543,10.7249212 C2.96687221,10.7249212 2.68817933,10.6978565 2.41826418,10.6429957 C2.98077028,12.4029303 4.61781664,13.6830157 6.55623167,13.7195896 C5.04280499,14.9082403 3.13145462,15.6170418 1.05625332,15.6170418 C0.699292366,15.6170418 0.347451751,15.594366 0,15.5534033 C1.9523131,16.8239795 4.27914261,17.5554569 6.7749434,17.5554569 C14.9265272,17.5554569 19.3797614,10.8031893 19.3797614,4.94624998 C19.3797614,4.7546029 19.3746411,4.56222436 19.3658634,4.37496615 C20.2297381,3.74882152 20.9795024,2.97199255 21.5741935,2.08032164" id="Fill-122"></path>
                            </g>
                        </g>
                    </g>
                </g>
            </g>
        </g>
    </g>
</svg>