<?xml version="1.0" encoding="UTF-8"?>
<svg width="21px" height="22px" viewBox="0 0 21 22" version="1.1" xmlns="http://www.w3.org/2000/svg" xmlns:xlink="http://www.w3.org/1999/xlink">
    <title>634A11EF-DC08-4148-9D6C-465B77760E81</title>
    <g id="Desktop" stroke="none" stroke-width="1" fill="none" fill-rule="evenodd">
        <g id="FPL-PF/Home/Landing-2" transform="translate(-1299.000000, -30.000000)" fill="#0c2739">
            <g id="search" transform="translate(1299.166667, 30.166667)">
                <path d="M9.71725174,2.61682927 C5.80563307,2.61682927 2.62291212,5.75684913 2.62291212,9.61682927 C2.62291212,13.4768094 5.80563307,16.6168293 9.71725174,16.6168293 C13.6293669,16.6168293 16.8120879,13.4768094 16.8120879,9.61682927 C16.8120879,5.75684913 13.6293669,2.61682927 9.71725174,2.61682927 M18.6808943,20.5833333 C18.4311992,20.5833333 18.1815041,20.4853577 17.995065,20.2913089 L14.6572358,16.8160285 C13.265126,17.7510772 11.5866992,18.2985041 9.78128455,18.2985041 C4.98523577,18.2985041 1.08333333,14.4375041 1.08333333,9.6909187 C1.08333333,4.94480894 4.98523577,1.08333333 9.78128455,1.08333333 C14.5778089,1.08333333 18.4797114,4.94480894 18.4797114,9.6909187 C18.4797114,11.9700407 17.5798577,14.0446504 16.1135528,15.5865772 L19.3667236,18.9733943 C19.7310407,19.3524553 19.7186748,19.9545772 19.3400894,20.3184187 C19.1555528,20.4953455 18.9182236,20.5833333 18.6808943,20.5833333" id="Fill-1"></path>
            </g>
        </g>
    </g>
</svg>